<?xml version="1.0" encoding="utf-8"?>
<!-- Generator: Adobe Illustrator 15.0.0, SVG Export Plug-In . SVG Version: 6.00 Build 0)  -->
<!DOCTYPE svg PUBLIC "-//W3C//DTD SVG 1.1//EN" "http://www.w3.org/Graphics/SVG/1.1/DTD/svg11.dtd">
<svg version="1.1" xmlns="http://www.w3.org/2000/svg" xmlns:xlink="http://www.w3.org/1999/xlink" x="0px" y="0px" width="612px"
	 height="792px" viewBox="0 0 612 792" enable-background="new 0 0 612 792" xml:space="preserve">
<g id="Layer_2_2_">
	<rect x="-41.5" y="-45.5" stroke="#FFFFFF" stroke-miterlimit="10" width="653.5" height="944"/>
</g>
<g id="Layer_3_2_">
	<ellipse fill="#FFFFFF" cx="329.646" cy="403.999" rx="242.232" ry="245.906"/>
</g>
<g id="Layer_1">
	<g id="Layer_3_1_">
		<rect x="791.566" y="343.093" fill="#4A281A" width="103.493" height="153.314"/>
	</g>
	<g id="Layer_2">
	</g>
	<g id="Layer_3" display="none">
		<g display="inline">
			<path fill="#D3D340" d="M239.98,499.666c-10.5-6.638-20.356-17.523-28.911-32.188c-14.328-24.562-23.073-56.396-25.176-90.938
				h51.221v-16.335h-68.062c0,85.648,38.453,155.894,87.379,162.785C248.958,516.963,243.196,508.907,239.98,499.666z"/>
			<path fill="#D3D340" d="M408.63,360.203h-16.335c0,40.784-9.122,78.882-25.685,107.272c-4.789,8.216-9.99,15.239-15.481,20.999
				c-1.287,11.56-6.397,21.973-14.036,29.956c18.534-8.153,34.891-25.626,47.269-49.33h24.271c30.071,0,54.45-24.377,54.45-54.447
				C463.081,384.581,438.701,360.203,408.63,360.203z M408.63,452.767h-16.771c8.878-22.088,14.651-48.11,16.282-76.229h0.488
				c21.019,0,38.115,17.098,38.115,38.115C446.745,435.669,429.646,452.767,408.63,452.767z"/>
			<path fill="#D3D340" d="M419.521,333.402H169.147v16.335h116.971c0.199,16.199,7.368,74.883,3.369,79.482
				c-3.998,4.601-14.259,15.295-14.259,31.485c0,21.997,8.458,35.662,19.058,35.662c10.598,0,19.058-14.302,19.058-36.299
				c0-16.189-10.259-26.248-14.259-30.851c-3.999-4.6,3.169-63.283,3.368-79.482H419.52c11.301,0,21.463,4.947,28.445,12.783
				c12.216,9.24,21.087,22.669,24.479,38.126c0.986-4.104,1.524-8.388,1.524-12.794C473.97,357.78,449.591,333.402,419.521,333.402z
				"/>
			<path fill="#D3D340" d="M324.233,360.203v122.512c0,13.51-10.992,24.503-24.503,24.503h-10.89
				c-13.511,0-24.502-10.993-24.502-24.503V360.203h-16.335v122.512c0,22.554,18.283,40.837,40.837,40.837h10.89
				c22.553,0,40.838-18.283,40.838-40.837V360.203H324.233z"/>
		</g>
	</g>
	<g id="Layer_2_1_">
	</g>
	<rect x="776.566" y="122.604" fill="#A5D239" width="97.496" height="149.993"/>
	<g id="Layer_4" display="none">
		<ellipse display="inline" fill="#FFFFFF" cx="309.511" cy="395.999" rx="203.127" ry="191.906"/>
		<g display="inline">
			<path fill="#A5D239" d="M239.979,499.666c-10.5-6.638-20.355-17.523-28.91-32.188c-14.328-24.562-23.073-56.396-25.176-90.938
				h51.221v-16.335h-68.062c0,85.648,38.453,155.894,87.379,162.785C248.958,516.963,243.196,508.907,239.979,499.666z"/>
			<path fill="#A5D239" d="M408.63,360.203h-16.335c0,40.784-9.122,78.882-25.685,107.272c-4.789,8.216-9.99,15.239-15.481,20.999
				c-1.287,11.56-6.397,21.973-14.036,29.956c18.534-8.153,34.891-25.626,47.269-49.33h24.271c30.071,0,54.45-24.377,54.45-54.447
				C463.081,384.581,438.701,360.203,408.63,360.203z M408.63,452.767h-16.771c8.878-22.088,14.651-48.11,16.282-76.229h0.488
				c21.019,0,38.115,17.098,38.115,38.115C446.745,435.669,429.646,452.767,408.63,452.767z"/>
			<path fill="#A5D239" d="M419.521,333.401H169.147v16.336h116.971c0.199,16.199,7.367,74.883,3.369,79.481
				c-3.998,4.601-14.26,15.295-14.26,31.485c0,21.997,8.459,35.662,19.059,35.662c10.598,0,19.058-14.303,19.058-36.299
				c0-16.189-10.259-26.248-14.259-30.851c-3.999-4.6,3.169-63.283,3.368-79.482H419.52c11.301,0,21.463,4.947,28.445,12.783
				c12.216,9.24,21.087,22.67,24.479,38.127c0.986-4.104,1.524-8.388,1.524-12.795C473.97,357.78,449.591,333.401,419.521,333.401z"
				/>
			<path fill="#A5D239" d="M324.233,360.203v122.512c0,13.51-10.992,24.503-24.504,24.503h-10.89
				c-13.511,0-24.502-10.993-24.502-24.503V360.203h-16.335v122.512c0,22.554,18.283,40.837,40.837,40.837h10.89
				c22.554,0,40.839-18.283,40.839-40.837V360.203H324.233z"/>
		</g>
	</g>
	<text transform="matrix(1 0 0 1 687.5391 670.8906)" fill="#4A281A" font-family="'MalayalamMN'" font-size="41.3357">Coffee + Tea</text>
	<text transform="matrix(1 0 0 1 645.499 817.5312)" fill="#4A281A" font-family="'MoristonPersonal-Bold'" font-size="41.3357">Coffee + Tea</text>
	<text transform="matrix(1 0 0 1 637.5068 612.5332)" fill="#4A281A" font-family="'MoristonPersonal-Bold'" font-size="41.3357">Coffee + Tea</text>
	<text transform="matrix(1 0 0 1 687.5391 757.7207)" fill="#4A281A" font-family="'MoristonPersonal-Bold'" font-size="41.3357">Coffee + Tea</text>
	<text transform="matrix(1 0 0 1 687.5391 717.2227)" fill="#4A281A" font-family="'Buffon-Bold'" font-size="41.3357">Coffee &amp; Tea</text>
	<g>
		<path fill="#DB1414" d="M1080.979,212.1c-0.141,46.61-10.161,86.298-28.999,114.827c-10.02,15.173-22.421,26.931-36.859,34.948
			c-15.308,8.498-32.962,12.808-52.474,12.808s-37.166-4.31-52.473-12.808c-14.439-8.018-26.841-19.775-36.859-34.948
			c-18.84-28.529-28.859-68.217-29-114.827H1080.979 M1081.98,211.1H843.312c0,90.897,38,164.583,119.334,164.583
			S1081.98,301.997,1081.98,211.1L1081.98,211.1z"/>
	</g>
	<rect x="744.844" y="316.261" fill="#DE9927" width="25.333" height="16.312"/>
	<path fill="#A5D239" d="M436.956,308.901l-241.098,0.098c-0.39-0.057-0.784-0.098-1.19-0.098c-4.512,0-8.169,3.658-8.169,8.171
		c0,4.512,3.657,8.169,8.169,8.169h108.854c0.198,16.202,7.368,74.898,3.37,79.501c-4,4.6-14.264,15.297-14.264,31.492
		c0,22.002,8.461,35.672,19.062,35.672c10.601,0,19.062-14.307,19.062-36.311c0-16.191-10.261-26.254-14.263-30.854
		c-3.999-4.604,3.171-63.299,3.37-79.501h117.096c11.301,0,21.466,4.949,28.452,12.785c12.219,9.243,21.092,22.676,24.483,38.139
		c0.986-4.107,1.524-8.39,1.524-12.8C491.418,333.286,467.034,308.901,436.956,308.901z"/>
	<path fill="#A5D239" d="M349.815,335.709c-4.512,0-8.17,3.657-8.17,8.169V458.25c0,13.514-10.994,24.508-24.509,24.508h-10.893
		c-13.515,0-24.51-10.994-24.51-24.508V343.878c0-4.512-3.657-8.169-8.169-8.169c-4.511,0-8.171,3.657-8.171,8.169V458.25
		c0,22.559,18.291,40.848,40.85,40.848h10.893c22.558,0,40.848-18.289,40.848-40.848V343.878
		C357.984,339.367,354.327,335.709,349.815,335.709z"/>
	<path fill="#73C053" d="M385.271,440.782c-0.415,0.74-0.815,1.499-1.24,2.228c-2.572,4.41-5.267,8.467-8.058,12.181
		c5.81,1.484,11.309,3.177,16.442,5.067c3.04-4.429,5.914-9.18,8.608-14.22C396.14,444.126,390.874,442.367,385.271,440.782z"/>
	<g>
		<g>
			<path fill="#A5D239" d="M426.063,335.709h-7.729v0.027c-0.187-0.012-0.374-0.027-0.562-0.027c-4.052,0-7.406,2.953-8.05,6.824
				h-0.095c-0.96,38.203-9.957,73.666-25.596,100.476c-4.791,8.215-9.993,15.242-15.485,21.004
				c-1.285,11.561-6.399,21.979-14.039,29.963c18.538-8.154,34.896-25.633,47.277-49.342h24.277
				c30.077,0,54.462-24.385,54.462-54.463C480.525,360.093,456.141,335.709,426.063,335.709z M426.063,428.295h-16.777
				c8.88-22.096,14.657-48.125,16.287-76.247h0.49c21.021,0,38.123,17.104,38.123,38.123
				C464.187,411.191,447.084,428.295,426.063,428.295z"/>
		</g>
	</g>
	<g>
		<path fill="#4A281A" d="M418.691,454.635h-10.968c-1.881,3.312-3.841,6.475-5.861,9.514c16.51,7.675,21.11,15.073,21.11,18.178
			c0,3.47-5.733,12.302-27.431,20.891c-22.479,8.899-52.715,13.8-85.137,13.8s-62.657-4.9-85.136-13.8
			c-21.698-8.589-27.431-17.421-27.431-20.891c0-2.677,3.42-8.545,14.94-15.03c-2.852-4.048-5.583-8.358-8.171-12.934
			c-0.168-0.298-0.325-0.61-0.492-0.909c-14.262,8.211-22.616,18.155-22.616,28.873c0,28.182,57.714,51.029,128.906,51.029
			c71.193,0,128.906-22.848,128.906-51.029C439.312,472.118,431.734,462.611,418.691,454.635z"/>
	</g>
	<path fill="#A5D239" d="M273.827,498.533c-7.476-6.025-13.237-14.084-16.455-23.328c-10.503-6.639-20.36-17.527-28.918-32.195
		c-14.331-24.568-23.077-56.41-25.181-90.961h43.062c4.512,0,8.17-3.658,8.17-8.17s-3.658-8.169-8.17-8.169h-51.623
		c-4.511,0-8.168,3.657-8.168,8.169c0,0.012,0,0.023,0,0.036C188.909,425.824,226.461,491.861,273.827,498.533z"/>
</g>
</svg>
