<?xml version="1.0" encoding="utf-8"?>
<!-- Generator: Adobe Illustrator 15.0.0, SVG Export Plug-In . SVG Version: 6.00 Build 0)  -->
<!DOCTYPE svg PUBLIC "-//W3C//DTD SVG 1.1//EN" "http://www.w3.org/Graphics/SVG/1.1/DTD/svg11.dtd">
<svg version="1.1" id="Layer_1" xmlns="http://www.w3.org/2000/svg" xmlns:xlink="http://www.w3.org/1999/xlink" x="0px" y="0px"
	 width="612px" height="792px" viewBox="0 0 612 792" enable-background="new 0 0 612 792" xml:space="preserve">
<circle fill="#E6DFD3" cx="305.926" cy="393.809" r="238"/>
<path fill="#AFBB42" d="M430.5,278.805l-267.662,0.109c-0.434-0.064-0.869-0.109-1.32-0.109c-5.01,0-9.07,4.061-9.07,9.072
	c0,5.008,4.061,9.068,9.07,9.068h120.846c0.219,17.986,8.18,83.15,3.742,88.26c-4.439,5.105-15.836,16.979-15.836,34.961
	c0,24.428,9.393,39.604,21.162,39.604s21.162-15.883,21.162-40.311c0-17.977-11.391-29.148-15.834-34.254
	c-4.439-5.111,3.52-70.273,3.74-88.26h129.998c12.547,0,23.832,5.494,31.588,14.191c13.564,10.262,23.416,25.176,27.18,42.342
	c1.101-4.559,1.691-9.314,1.691-14.209C490.963,305.877,463.893,278.805,430.5,278.805z"/>
<path fill="#AFBB42" d="M333.758,308.566c-5.01,0-9.07,4.061-9.07,9.068V444.61c0,15.004-12.2,27.209-27.208,27.209h-12.092
	c-15.004,0-27.211-12.205-27.211-27.209V317.635c0-5.008-4.059-9.068-9.068-9.068c-5.008,0-9.072,4.061-9.072,9.068V444.61
	c0,25.045,20.307,45.35,45.352,45.35h12.092c25.045,0,45.35-20.305,45.35-45.35V317.635
	C342.826,312.629,338.768,308.566,333.758,308.566z"/>
<path fill="#A5D239" d="M249.398,489.33c-8.301-6.689-14.697-15.635-18.27-25.898c-11.66-7.371-22.604-19.459-32.104-35.737
	c-15.91-27.273-25.619-62.625-27.955-100.982h47.807c5.01,0,9.07-4.061,9.07-9.07c0-5.008-4.061-9.068-9.07-9.068h-57.311
	c-5.01,0-9.068,4.061-9.068,9.068c0,0.014,0,0.025,0,0.039C155.123,408.609,196.812,481.922,249.398,489.33z"/>
<path fill="#5F4B3F" d="M393.77,445.625c-2.776,4.514-5.688,8.779-8.713,12.775c18.734,3.795,26.39,8.733,26.39,13.416
	c0,9.432-31.068,32.028-121.438,32.028c-90.37,0-121.436-22.602-121.436-32.028c0-3.961,5.486-8.115,18.551-11.604
	c-2.996-3.822-5.877-7.908-8.645-12.229c-19.75,6.521-31.58,14.809-31.58,23.829c0,21.007,64.072,38.029,143.109,38.029
	s143.109-17.022,143.109-38.029C433.113,461.666,418.15,452.445,393.77,445.625z"/>
<path fill="#AFBB42" d="M249.398,489.33c-8.301-6.689-14.697-15.635-18.27-25.898c-11.66-7.371-22.604-19.459-32.104-35.737
	c-15.91-27.273-25.619-62.625-27.955-100.982h47.807c5.01,0,9.07-4.061,9.07-9.07c0-5.008-4.061-9.068-9.07-9.068h-57.311
	c-5.01,0-9.068,4.061-9.068,9.068c0,0.014,0,0.025,0,0.039C155.123,408.609,196.812,481.922,249.398,489.33z"/>
<g>
	<g>
		<g>
			<path fill="#AFBB42" d="M418.406,308.566h-8.58v0.029c-0.209-0.012-0.416-0.029-0.625-0.029c-4.498,0-8.221,3.279-8.938,7.576
				h-0.104c-1.066,42.412-11.055,81.781-28.416,111.547c-5.32,9.114-11.094,16.92-17.191,23.313
				c-1.428,12.834-7.104,24.4-15.586,33.269c20.58-9.058,38.74-28.457,52.486-54.779h26.951c33.391,0,60.463-27.07,60.463-60.463
				C478.869,335.637,451.799,308.566,418.406,308.566z M418.406,411.354h-18.625c9.854-24.526,16.271-53.428,18.082-84.646h0.543
				c23.338,0,42.324,18.988,42.324,42.324C460.732,392.365,441.744,411.354,418.406,411.354z"/>
		</g>
	</g>
</g>
<g>
	<g>
		<path fill="#5F4B3F" d="M219.99,520.488c-2.306-0.604-7.486,6.626-8.89,11.908c-0.758,2.854-0.382,4.824,1.857,5.423
			c3.337,0.886,7.52-2.57,9.242-4.705c0.328-0.406,0.621-0.526,0.831-0.478c0.168,0.042,0.263,0.201,0.189,0.501
			c-0.042,0.172-0.134,0.394-0.284,0.612c-2.198,3.275-7.101,7.438-11.974,6.134c-4.237-1.134-4.918-5.085-3.74-9.423
			c1.722-6.337,7.328-13.235,11.719-12.075c0.903,0.239,1.632,1.072,2.015,1.396c1.104,0.929,1.923,3.228,1.352,5.537
			c-0.761,3.075-2.263,5.517-4.52,4.928c-0.961-0.25-1.736-1.048-1.538-1.816c0.439-1.707,3.427-2.471,4.314-6.019
			C220.787,521.518,220.402,520.596,219.99,520.488z"/>
		<path fill="#5F4B3F" d="M232.751,539.439c-1.623,0.562-4.966,4.312-7.419,3.805c-3.442-0.713-4.166-4.256-3.327-8.223
			c0.675-3.191,2.172-6.135,3.708-8.271c0.498-0.692,2.138-1.093,2.431-1.203c0.906-0.34,3.46-4.271,6.087-3.748
			c3.337,0.668,4.173,3.873,3.478,7.603c-0.558,2.983-4.052,8.854-4.029,8.916c0.084,0.212,3.308-0.245,4.703-1.922
			c0.319-0.387,0.607-0.648,0.905-0.598c0.127,0.024,0.239,0.141,0.199,0.354c-0.032,0.174-0.128,0.427-0.315,0.748
			C238.313,538.379,234.083,538.974,232.751,539.439z M229.97,538.434c-0.167-0.674-3.281-5.48-3.281-5.48
			c-0.049-0.008-1.043,2.709-1.302,3.96c-0.472,2.287-0.271,4.132,1.145,4.424c0.129,0.025,0.267,0.04,0.394,0.035
			C227.698,541.338,230.084,538.892,229.97,538.434z M229.28,530.152c-0.51,2.55,1.216,6.92,1.503,6.871
			c0.68-0.116,2.975-6.646,3.515-9.454c0.433-2.251,0.37-3.972-0.634-4.168C232.243,523.116,230.032,526.394,229.28,530.152z"/>
		<path fill="#5F4B3F" d="M242.018,538.941c-0.437,0.233-1.67,4.549-1.578,4.678c0.528,0.742,10.152-1.356,12.501-7.863
			c3.97-10.998,7.364-21.068,12.785-20.484c1,0.107,1.578,1.134,1.793,1.479c0.231,0.374,1.5,1.53,1.267,3.943
			c-1.013,10.479-11.939,18.229-13.127,19.032c-0.578,0.395-1.938,5.479-1.813,5.646c0.56,0.754,8.855-1.034,11.604-5.48
			c0.257-0.413,0.545-0.604,0.762-0.586c0.172,0.021,0.285,0.205,0.254,0.518c-0.018,0.176-0.083,0.389-0.193,0.599
			c-2.61,4.987-12.509,7.124-12.509,7.124c-0.021,0.083,2.366,4.449,1.996,7.604c-0.344,2.933-1.826,5.518-5.032,5.125
			c-2.717-0.333-3.326-2.946-2.825-6.842c0.434-3.363,3.263-12.472,3.263-12.472c-0.077-0.044-10.892,4.82-10.892,4.82
			c-0.02,0.083,2.424,4.385,2.023,7.312c-0.359,2.62-1.795,4.835-4.898,4.396c-2.748-0.396-3.38-2.964-2.835-6.782
			c0.558-3.906,2.386-9.142,4.478-14.938c4.275-11.849,7.812-21.937,13.472-21.209c1.04,0.136,1.588,1.146,1.804,1.521
			c0.219,0.376,1.468,1.557,1.187,3.965C254.313,530.194,243.258,538.266,242.018,538.941z M239.784,552.429
			c0.215-1.522-0.476-5.496-0.476-5.496c-0.332-0.009-2.467,7.222-2.518,7.565c-0.133,0.916,0.094,1.53,0.536,1.594
			C238.387,556.243,239.452,554.786,239.784,552.429z M253.182,516.329c-0.811-0.124-1.487,0.805-2.247,2.062
			c-3.535,5.863-8.467,19.188-8.467,19.188c0.28,0.24,10.869-15.457,11.351-19.483C253.939,517.092,253.952,516.447,253.182,516.329
			z M253.367,554.148c0.196-1.619-0.536-5.527-0.536-5.527c-0.39-0.004-2.727,8.328-2.771,8.677
			c-0.116,0.917,0.123,1.524,0.568,1.579C251.739,559.013,253.017,557.037,253.367,554.148z M266.393,517.027
			c-0.813-0.107-1.442,0.819-2.206,2.107c-3.459,5.848-8.096,19.129-8.096,19.129c0.216,0.158,10.562-15.356,10.97-19.479
			C267.162,517.776,267.165,517.13,266.393,517.027z"/>
		<path fill="#5F4B3F" d="M279.664,531.754c-0.142,4.272-3.857,10.702-9.541,10.022c-0.121-0.02-0.326-0.034-0.349-0.019
			c-0.621,0.564,0.457,5.146,2.651,5.237c3.818,0.167,7.101-4.449,7.631-6.19c1.514-4.973,4.371-13.834,8.59-13.744
			c0.938,0.021,1.984,0.597,2.418,0.797c1.164,0.534,2.536,2.062,2.507,4.398c-0.056,4.495-3.193,10.812-7.689,10.699
			c-0.611-0.016-1.877-0.465-1.909-0.444c-0.376,0.243,0.708,4.739,2.771,4.786c5.138,0.117,7.552-7.054,8.335-7.045
			c0.174,0.001,0.301,0.178,0.299,0.442c-0.001,0.177-0.048,0.396-0.137,0.616c-2.002,4.909-5.164,8.763-10.234,8.635
			c-3.439-0.087-5.03-6.721-5.03-6.721c-0.146-0.032-5.07,6.578-9.344,6.384c-3.789-0.179-5.144-3.7-4.917-7.931
			c0.357-6.646,4.471-14.979,8.945-14.796c0.938,0.039,1.973,0.644,2.402,0.852C278.27,528.322,279.732,529.684,279.664,531.754z
			 M277.044,530.559c0.032-0.881-0.061-1.854-0.787-1.883c-2.478-0.098-6.893,11.506-6.389,12.031
			C270.419,541.281,276.914,534.082,277.044,530.559z M291.064,530.547c0.015-0.882-0.1-1.72-0.783-1.729
			c-2.521-0.05-7.061,11.28-6.186,12.425C284.721,542.055,291.003,534.293,291.064,530.547z"/>
		<path fill="#5F4B3F" d="M319.564,531.858c1.574-0.14,3.601,0.141,5.143-0.003c1.175-0.109,1.858-0.746,2.225-0.782
			c0.294-0.028,0.451,0.105,0.479,0.411c0.21,2.218-1.237,3.422-3.192,3.602c-0.7,0.063-2.208-0.208-2.644-0.064
			c-0.896,0.291-3.445,5.104-3.771,8.172c-0.048,0.447,0.271,1.451,0.323,2.134c0.528,6.514-2.239,10.503-7.035,10.839
			c-2.437,0.171-5.195-1.096-5.271-2.303c-0.05-0.791,1.036-1.691,1.901-1.748c1.479-0.102,2.602,3.549,4.858,3.031
			c1.971-0.443,2.239-7.702,2.239-7.702c-0.165-0.067-2.928,1.925-4.96,2.062c-3.85,0.266-6.163-3.047-6.383-6.743
			c-0.226-3.808,5.721-8.673,6.094-9.521c0.175-0.398-1.123-2.952-1.223-4.422c-0.194-2.979,1.529-6.576,4.822-6.828
			c0.615-0.048,1.367,0.283,1.479,0.301c0.023,0.004,0.141-0.048,0.25-0.057c1.554-0.126,2.966,2.027,3.1,3.688
			c0.17,2.109-4.469,5.812-4.804,6.9c-0.257,0.833,3.959,7.952,3.959,7.952c0.157,0.005,2.771-5.805,2.771-5.805
			c-0.09-0.178-2.438,1.033-2.849,1.066c-0.188,0.016-0.379-0.083-0.403-0.384C316.555,534.041,317.729,532.015,319.564,531.858z
			 M310.134,534.375c-0.604-0.153-3.202,4.915-3.02,7.742c0.182,2.827,1.544,5.203,4.06,5.021c1.395-0.099,3.172-1.091,3.374-1.841
			C315.198,542.89,310.647,534.504,310.134,534.375z M312.727,531.799c0.627,0.168,2.95-3.826,2.811-5.709
			c-0.119-1.544-0.847-3.279-1.097-3.363c-1.109-0.369-2.979,2.729-2.845,4.648C311.71,528.996,312.516,531.742,312.727,531.799z"/>
		<path fill="#5F4B3F" d="M336.141,523.838c0.53-0.527,0.438-4.013,0.684-5.869c0.101-0.766,0.748-1.232,1.537-1.367
			c1.033-0.171,2.271,0.336,2.51,1.815c0.176,1.088-0.521,4.725-0.326,4.923c0.34,0.347,4.038-0.373,4.14,0.235
			c0.104,0.604-3.551,1.177-4.396,2.178c-1.734,2.045-1.631,13.082-1.133,16.217c0.18,1.132,0.552,1.787,1.195,1.688
			c1.688-0.273,3.146-5.442,3.979-7.583c0.217-0.562,0.382-0.87,0.596-0.906c0.172-0.029,0.327,0.123,0.379,0.428
			c0.029,0.174,0.026,0.444-0.046,0.771c-0.354,1.602-2.135,9.263-5.786,9.846c-1.69,0.271-3.315-0.729-3.817-3.994
			c-0.442-2.876-0.304-9.188,0.223-15.65c-0.548,0.032-0.82,0.055-1.368,0.084c-0.514,0.035-0.811-0.5-0.896-1.062
			c-0.103-0.653,0.094-1.399,0.556-1.475C334.788,524.007,335.983,523.994,336.141,523.838z"/>
		<path fill="#5F4B3F" d="M355.83,524.932c0.864,4.146-0.957,10.628-5.472,11.553c-0.516,0.104-1.636,0.022-1.675,0.065
			c-0.255,0.279,1.204,5.154,3.861,4.608c4.073-0.837,5.3-5.986,5.989-7.979c0.166-0.479,0.333-0.705,0.545-0.751
			c0.169-0.037,0.333,0.109,0.389,0.367c0.038,0.172,0.041,0.397,0.002,0.632c-0.864,5.242-3.063,9.692-8.021,10.698
			c-3.704,0.752-5.875-2.34-6.664-6.45c-1.237-6.448,0.794-15.503,5.16-16.409c0.915-0.188,2.056,0.143,2.519,0.236
			C353.711,521.771,355.389,522.818,355.83,524.932z M348.892,535.338c2.503-0.511,4.705-8.082,4.021-11.449
			c-0.146-0.688-0.374-1.4-0.999-1.271c-2.374,0.5-4.623,11.458-3.368,12.749C348.579,535.401,348.764,535.364,348.892,535.338z"/>
		<path fill="#5F4B3F" d="M371.289,535.541c0.173,0.639,0.499,1.009,0.878,0.904c0.885-0.243,1.649-2.907,2.402-7.53
			c0.084-0.519,0.339-0.874,0.547-0.933c0.125-0.035,0.283,0.057,0.366,0.353c0.047,0.171,0.066,0.44,0.028,0.771
			c-0.188,1.632-0.889,9.361-4.145,10.253c-1.312,0.354-3.072,0.054-3.916-3.146c-0.06-0.213-0.174-0.822-0.174-0.822
			c-0.039-0.001-1.753,5.531-3.111,5.89c-2.294,0.598-3.905-1.638-4.742-4.973c-1.632-6.495-0.377-17.088,4.334-18.354
			c1.644-0.441,3.146,1.11,3.571,2.408c0.099-0.027,0.146-0.041,0.245-0.068c1.024-0.282,2.497,0.271,2.919,1.846
			c0.058,0.218,0.116,0.43,0.131,0.647C370.997,528.465,370.737,533.499,371.289,535.541z M366.834,528.075
			c-0.112-2.604-0.168-3.896-0.283-6.495c-0.188-0.725-0.549-1.585-1.535-1.318c-2.752,0.745-2.739,11.396-1.59,15.878
			c0.33,1.28,0.752,2.036,1.259,1.903C366.246,537.634,367.036,533.086,366.834,528.075z"/>
	</g>
</g>
</svg>
