<?xml version="1.0" encoding="utf-8"?>
<!-- Generator: Adobe Illustrator 15.0.0, SVG Export Plug-In . SVG Version: 6.00 Build 0)  -->
<!DOCTYPE svg PUBLIC "-//W3C//DTD SVG 1.1//EN" "http://www.w3.org/Graphics/SVG/1.1/DTD/svg11.dtd">
<svg version="1.1" xmlns="http://www.w3.org/2000/svg" xmlns:xlink="http://www.w3.org/1999/xlink" x="0px" y="0px" width="612px"
	 height="792px" viewBox="0 0 612 792" enable-background="new 0 0 612 792" xml:space="preserve">
<g id="Layer_3_1_">
	<rect x="791.566" y="343.093" fill="#4A281A" width="103.494" height="153.314"/>
</g>
<g id="Layer_1">
	<g id="Layer_2">
	</g>
	<ellipse fill="#FFFFFF" cx="309.511" cy="395.999" rx="203.127" ry="191.906"/>
	<g>
		<path fill="#4A281A" d="M419.509,333.402l-241.098,0.097c-0.39-0.057-0.784-0.097-1.19-0.097c-4.512,0-8.169,3.658-8.169,8.17
			c0,4.512,3.657,8.169,8.169,8.169h108.854c0.199,16.203,7.369,74.899,3.37,79.502c-4,4.6-14.264,15.297-14.264,31.492
			c0,22.002,8.462,35.671,19.063,35.672c10.601-0.001,19.062-14.306,19.062-36.31c0-16.192-10.261-26.254-14.263-30.854
			c-3.999-4.603,3.171-63.299,3.37-79.502h117.096c11.301,0,21.466,4.949,28.452,12.786c12.219,9.243,21.092,22.675,24.483,38.138
			c0.987-4.107,1.525-8.39,1.525-12.8C473.971,357.786,449.587,333.402,419.509,333.402z"/>
		<path fill="#4A281A" d="M332.368,360.21c-4.512,0-8.17,3.657-8.17,8.169v114.372c0,13.514-10.994,24.508-24.508,24.508h-10.893
			c-13.515,0-24.51-10.994-24.51-24.508V368.379c0-4.512-3.657-8.169-8.169-8.169c-4.511,0-8.17,3.657-8.17,8.169v114.372
			c0,22.559,18.29,40.848,40.849,40.848h10.893c22.557,0,40.847-18.289,40.847-40.848V368.379
			C340.537,363.867,336.88,360.21,332.368,360.21z"/>
		<path fill="#4A281A" d="M408.616,360.21h-7.729v0.028c-0.187-0.013-0.374-0.028-0.563-0.028c-4.052,0-7.406,2.953-8.05,6.824
			h-0.094c-0.96,38.203-9.957,73.666-25.596,100.477c-4.791,8.215-9.993,15.241-15.485,21.003
			c-1.286,11.561-6.4,21.978-14.039,29.963c18.538-8.154,34.896-25.632,47.277-49.342h24.277c30.077,0,54.462-24.384,54.462-54.463
			C463.078,384.594,438.693,360.21,408.616,360.21z M408.616,452.796h-16.777c8.88-22.096,14.657-48.125,16.287-76.247h0.49
			c21.021,0,38.123,17.103,38.123,38.123C446.739,435.692,429.637,452.796,408.616,452.796z"/>
		<path fill="#4A281A" d="M256.38,523.033c-7.476-6.025-13.238-14.084-16.455-23.327c-10.503-6.639-20.361-17.528-28.918-32.195
			c-14.331-24.569-23.078-56.41-25.181-90.962h43.062c4.513,0,8.17-3.658,8.17-8.17c0-4.512-3.657-8.169-8.17-8.169h-51.622
			c-4.511,0-8.169,3.657-8.169,8.169c0,0.012,0.001,0.023,0.001,0.036C171.462,450.325,209.014,516.361,256.38,523.033z"/>
	</g>
	<g id="Layer_3" display="none">
		<g display="inline">
			<path fill="#D3D340" d="M239.98,499.666c-10.5-6.638-20.356-17.523-28.911-32.188c-14.328-24.562-23.073-56.396-25.176-90.938
				h51.221v-16.335h-68.062c0,85.649,38.453,155.894,87.379,162.785C248.958,516.963,243.196,508.907,239.98,499.666z"/>
			<path fill="#D3D340" d="M408.63,360.203h-16.335c0,40.784-9.122,78.882-25.685,107.273c-4.789,8.215-9.99,15.239-15.481,20.999
				c-1.287,11.559-6.398,21.972-14.036,29.956c18.534-8.154,34.89-25.626,47.268-49.33h24.271c30.071,0,54.45-24.377,54.45-54.448
				C463.081,384.581,438.701,360.203,408.63,360.203z M408.63,452.767h-16.771c8.878-22.088,14.652-48.111,16.283-76.229h0.488
				c21.018,0,38.115,17.098,38.115,38.115C446.745,435.669,429.646,452.767,408.63,452.767z"/>
			<path fill="#D3D340" d="M419.521,333.402H169.147v16.335h116.971c0.199,16.199,7.368,74.883,3.369,79.482
				c-3.998,4.6-14.259,15.295-14.259,31.485c0,21.997,8.458,35.662,19.058,35.662c10.598,0,19.058-14.302,19.058-36.299
				c0-16.189-10.259-26.248-14.259-30.85c-3.999-4.6,3.169-63.283,3.368-79.482H419.52c11.3,0,21.462,4.947,28.445,12.783
				c12.216,9.24,21.087,22.669,24.479,38.127c0.987-4.104,1.525-8.388,1.525-12.795C473.97,357.78,449.591,333.402,419.521,333.402z
				"/>
			<path fill="#D3D340" d="M324.233,360.203v122.512c0,13.51-10.992,24.503-24.503,24.503h-10.89
				c-13.511,0-24.502-10.993-24.502-24.503V360.203h-16.335v122.512c0,22.554,18.283,40.837,40.837,40.837h10.89
				c22.553,0,40.838-18.283,40.838-40.837V360.203H324.233z"/>
		</g>
	</g>
	<g id="Layer_2_1_">
	</g>
	<rect x="776.566" y="122.604" fill="#A5D239" width="97.496" height="149.993"/>
</g>
<g id="Layer_4">
	<ellipse fill="#FFFFFF" cx="309.511" cy="395.999" rx="203.127" ry="191.906"/>
	<g>
		<path fill="#A5D239" d="M239.979,499.666c-10.5-6.638-20.355-17.523-28.91-32.188c-14.328-24.562-23.073-56.396-25.176-90.938
			h51.221v-16.335h-68.062c0,85.649,38.453,155.894,87.379,162.785C248.958,516.963,243.196,508.907,239.979,499.666z"/>
		<path fill="#A5D239" d="M408.63,360.203h-16.335c0,40.784-9.122,78.882-25.685,107.273c-4.789,8.215-9.99,15.239-15.481,20.999
			c-1.287,11.559-6.398,21.972-14.036,29.956c18.534-8.154,34.89-25.626,47.268-49.33h24.271c30.071,0,54.45-24.377,54.45-54.448
			C463.081,384.581,438.701,360.203,408.63,360.203z M408.63,452.767h-16.771c8.878-22.088,14.652-48.111,16.283-76.229h0.488
			c21.018,0,38.115,17.098,38.115,38.115C446.745,435.669,429.646,452.767,408.63,452.767z"/>
		<path fill="#A5D239" d="M419.521,333.401H169.147v16.336h116.971c0.199,16.199,7.367,74.883,3.369,79.481
			c-3.998,4.6-14.26,15.295-14.26,31.485c0,21.997,8.459,35.662,19.059,35.662c10.598,0,19.058-14.302,19.058-36.299
			c0-16.189-10.259-26.248-14.259-30.85c-3.999-4.6,3.169-63.283,3.368-79.482H419.52c11.3,0,21.462,4.947,28.445,12.783
			c12.216,9.24,21.087,22.67,24.479,38.128c0.987-4.104,1.525-8.388,1.525-12.796C473.97,357.78,449.591,333.401,419.521,333.401z"
			/>
		<path fill="#A5D239" d="M324.233,360.203v122.512c0,13.51-10.992,24.503-24.504,24.503h-10.89
			c-13.511,0-24.502-10.993-24.502-24.503V360.203h-16.335v122.512c0,22.554,18.283,40.837,40.837,40.837h10.89
			c22.554,0,40.839-18.283,40.839-40.837V360.203H324.233z"/>
	</g>
</g>
</svg>
