<?xml version="1.0" encoding="utf-8"?>
<!-- Generator: Adobe Illustrator 15.0.0, SVG Export Plug-In . SVG Version: 6.00 Build 0)  -->
<!DOCTYPE svg PUBLIC "-//W3C//DTD SVG 1.1//EN" "http://www.w3.org/Graphics/SVG/1.1/DTD/svg11.dtd">
<svg version="1.1" xmlns="http://www.w3.org/2000/svg" xmlns:xlink="http://www.w3.org/1999/xlink" x="0px" y="0px" width="612px"
	 height="792px" viewBox="0 0 612 792" enable-background="new 0 0 612 792" xml:space="preserve">
<g id="Layer_2">
</g>
<g id="Layer_1">
	<ellipse fill="#FFFFFF" cx="309.511" cy="395.999" rx="203.127" ry="191.906"/>
	<g>
		<path fill="#D3D340" d="M239.98,499.666c-10.5-6.638-20.356-17.523-28.911-32.188c-14.328-24.562-23.073-56.396-25.176-90.939
			h51.221v-16.335h-68.062c0,85.649,38.453,155.894,87.379,162.785C248.958,516.963,243.196,508.907,239.98,499.666z"/>
		<path fill="#D3D340" d="M408.63,360.203h-16.335c0,40.784-9.122,78.882-25.685,107.274c-4.789,8.214-9.99,15.239-15.481,20.999
			c-1.287,11.558-6.399,21.971-14.036,29.956c18.534-8.155,34.889-25.626,47.267-49.33h24.271c30.071,0,54.45-24.377,54.45-54.449
			S438.701,360.203,408.63,360.203z M408.63,452.767h-16.772c8.878-22.088,14.653-48.112,16.284-76.229h0.488
			c21.017,0,38.115,17.098,38.115,38.115C446.745,435.669,429.646,452.767,408.63,452.767z"/>
		<path fill="#D3D340" d="M419.521,333.402H169.147v16.335h116.971c0.199,16.199,7.368,74.883,3.369,79.482
			c-3.998,4.599-14.259,15.295-14.259,31.485c0,21.997,8.458,35.662,19.058,35.662c10.598,0,19.058-14.302,19.058-36.299
			c0-16.189-10.259-26.248-14.259-30.849c-3.999-4.6,3.169-63.283,3.368-79.482h117.067c11.299,0,21.461,4.947,28.445,12.783
			c12.216,9.24,21.087,22.669,24.478,38.128c0.988-4.105,1.526-8.388,1.526-12.796C473.97,357.78,449.591,333.402,419.521,333.402z"
			/>
		<path fill="#D3D340" d="M324.233,360.203v122.512c0,13.51-10.992,24.503-24.503,24.503h-10.89
			c-13.511,0-24.502-10.993-24.502-24.503V360.203h-16.335v122.512c0,22.554,18.283,40.837,40.837,40.837h10.89
			c22.553,0,40.838-18.283,40.838-40.837V360.203H324.233z"/>
	</g>
</g>
</svg>
